<?xml version="1.0" encoding="UTF-8"?>
<svg width="1024" height="1024" viewBox="0 0 1024 1024" fill="none" xmlns="http://www.w3.org/2000/svg">
  <rect width="1024" height="1024" fill="#007AFF"/>
  <path d="M512 256C384 256 280 360 280 488C280 616 384 720 512 720C640 720 744 616 744 488C744 360 640 256 512 256ZM512 664C416 664 336 584 336 488C336 392 416 312 512 312C608 312 688 392 688 488C688 584 608 664 512 664Z" fill="white"/>
  <path d="M512 360C456 360 408 408 408 464C408 520 456 568 512 568C568 568 616 520 616 464C616 408 568 360 512 360Z" fill="white"/>
</svg> 